<svg width="96" height="96" xmlns="http://www.w3.org/2000/svg" xmlns:xlink="http://www.w3.org/1999/xlink" xml:space="preserve" overflow="hidden"><g><g><path d="M48 12C67.8822 12 84 28.1177 84 48 84 67.8822 67.8822 84 48 84 28.1177 84 12 67.8822 12 48 12.0226 28.1271 28.1271 12.0226 48 12M48 10C27.0132 10 10 27.0132 10 48 10 68.9868 27.0132 86 48 86 68.9868 86 86 68.9868 86 48 86.0094 27.0226 69.0114 10.0094 48.034 10 48.0227 10 48.0113 10 48 10Z" fill="#000000" fill-rule="nonzero" fill-opacity="1"/><path d="M48 18C64.5685 18 78 31.4315 78 48 78 64.5685 64.5685 78 48 78 31.4315 78 18 64.5685 18 48 18.0187 31.4392 31.4392 18.0187 48 18M48 16C30.3269 16 16 30.3269 16 48 16 65.6731 30.3269 80 48 80 65.6731 80 80 65.6731 80 48 79.9802 30.3351 65.6649 16.0198 48 16Z" fill="#000000" fill-rule="nonzero" fill-opacity="1"/><path d="M52.866 53.067 36.077 59.935 42.934 43.327 59.723 36.305ZM41.4 41.8 32.4 63.6 54.4 54.6 63.4 32.6Z" fill="#000000" fill-rule="nonzero" fill-opacity="1"/><path d="M50 48C50 49.1046 49.1046 50 48 50 46.8954 50 46 49.1046 46 48 46 46.8954 46.8954 46 48 46 49.1046 46 50 46.8954 50 48Z" fill="#000000" fill-rule="nonzero" fill-opacity="1"/></g></g></svg>